<?xml version="1.0" encoding="UTF-8" standalone="no"?>
<svg xmlns="http://www.w3.org/2000/svg" width="1200" height="800" viewBox="0 0 1200 800">
  <!-- Dark background -->
  <rect width="1200" height="800" fill="#1a1a2e" />
  
  <!-- Abstract pattern -->
  <g opacity="0.05">
    <path d="M0,400 Q300,300 600,400 T1200,400" stroke="#3a3a5a" stroke-width="20" fill="none" />
    <path d="M0,500 Q300,400 600,500 T1200,500" stroke="#3a3a5a" stroke-width="15" fill="none" />
    <path d="M0,600 Q300,500 600,600 T1200,600" stroke="#3a3a5a" stroke-width="10" fill="none" />
    <path d="M0,300 Q300,200 600,300 T1200,300" stroke="#3a3a5a" stroke-width="10" fill="none" />
    <path d="M0,200 Q300,100 600,200 T1200,200" stroke="#3a3a5a" stroke-width="15" fill="none" />
    <path d="M0,100 Q300,0 600,100 T1200,100" stroke="#3a3a5a" stroke-width="20" fill="none" />
  </g>
  
  <!-- Grid pattern -->
  <g opacity="0.03">
    <path d="M100,0 L100,800" stroke="#ffffff" stroke-width="1" />
    <path d="M200,0 L200,800" stroke="#ffffff" stroke-width="1" />
    <path d="M300,0 L300,800" stroke="#ffffff" stroke-width="1" />
    <path d="M400,0 L400,800" stroke="#ffffff" stroke-width="1" />
    <path d="M500,0 L500,800" stroke="#ffffff" stroke-width="1" />
    <path d="M600,0 L600,800" stroke="#ffffff" stroke-width="1" />
    <path d="M700,0 L700,800" stroke="#ffffff" stroke-width="1" />
    <path d="M800,0 L800,800" stroke="#ffffff" stroke-width="1" />
    <path d="M900,0 L900,800" stroke="#ffffff" stroke-width="1" />
    <path d="M1000,0 L1000,800" stroke="#ffffff" stroke-width="1" />
    <path d="M1100,0 L1100,800" stroke="#ffffff" stroke-width="1" />
    
    <path d="M0,100 L1200,100" stroke="#ffffff" stroke-width="1" />
    <path d="M0,200 L1200,200" stroke="#ffffff" stroke-width="1" />
    <path d="M0,300 L1200,300" stroke="#ffffff" stroke-width="1" />
    <path d="M0,400 L1200,400" stroke="#ffffff" stroke-width="1" />
    <path d="M0,500 L1200,500" stroke="#ffffff" stroke-width="1" />
    <path d="M0,600 L1200,600" stroke="#ffffff" stroke-width="1" />
    <path d="M0,700 L1200,700" stroke="#ffffff" stroke-width="1" />
  </g>
  
  <!-- Qualtrics logo watermark -->
  <g transform="translate(400, 300)" opacity="0.07">
    <path d="M20,10 C20,7.8 21.8,6 24,6 L34,6 C36.2,6 38,7.8 38,10 L38,40 C38,42.2 36.2,44 34,44 L24,44 C21.8,44 20,42.2 20,40 L20,10 Z" fill="#ffffff" transform="scale(4)" />
    <path d="M42,10 L50,10 L60,30 L60,10 L68,10 L68,40 L60,40 L50,20 L50,40 L42,40 L42,10 Z" fill="#ffffff" transform="scale(4)" />
    <path d="M72,10 L95,10 L95,17 L80,17 L80,21 L92,21 L92,28 L80,28 L80,33 L95,33 L95,40 L72,40 L72,10 Z" fill="#ffffff" transform="scale(4)" />
    <path d="M100,10 L108,10 L108,33 L125,33 L125,40 L100,40 L100,10 Z" fill="#ffffff" transform="scale(4)" />
    <path d="M130,10 L150,10 C155,10 160,15 160,20 C160,25 155,30 150,30 L138,30 L138,40 L130,40 L130,10 Z M138,23 L148,23 C150,23 152,21.5 152,20 C152,18.5 150,17 148,17 L138,17 L138,23 Z" fill="#ffffff" transform="scale(4)" />
    <path d="M165,10 L173,10 L173,25 L185,10 L195,10 L180,25 L195,40 L185,40 L173,28 L173,40 L165,40 L165,10 Z" fill="#ffffff" transform="scale(4)" />
  </g>
</svg>
