<?xml version="1.0" encoding="UTF-8" standalone="no"?>
<svg xmlns="http://www.w3.org/2000/svg" width="200" height="80" viewBox="0 0 200 80">
  <g fill="#0071bc">
    <path d="M20,10 C14.5,10 10,14.5 10,20 L10,60 C10,65.5 14.5,70 20,70 L180,70 C185.5,70 190,65.5 190,60 L190,20 C190,14.5 185.5,10 180,10 L20,10 Z M20,5 L180,5 C188.3,5 195,11.7 195,20 L195,60 C195,68.3 188.3,75 180,75 L20,75 C11.7,75 5,68.3 5,60 L5,20 C5,11.7 11.7,5 20,5 Z"/>
    <path d="M30,25 L45,25 L45,55 L30,55 Z"/>
    <path d="M50,25 L80,25 L80,35 L60,35 L60,37 L75,37 L75,45 L60,45 L60,47 L80,47 L80,55 L50,55 Z"/>
    <path d="M85,25 L115,25 L115,35 L95,35 L95,37 L110,37 L110,45 L95,45 L95,47 L115,47 L115,55 L85,55 Z"/>
    <path d="M120,25 L150,25 C155,25 160,30 160,35 C160,40 155,45 150,45 L130,45 L130,55 L120,55 Z M130,35 L145,35 C147,35 150,33 150,30 C150,27 147,25 145,25 L130,25 Z"/>
    <path d="M165,25 L175,25 L175,55 L165,55 Z"/>
  </g>
</svg>
