<?xml version="1.0" encoding="UTF-8" standalone="no"?>
<svg xmlns="http://www.w3.org/2000/svg" width="200" height="50" viewBox="0 0 200 50">
  <g fill="#00b4ef">
    <path d="M20,10 C20,7.8 21.8,6 24,6 L34,6 C36.2,6 38,7.8 38,10 L38,40 C38,42.2 36.2,44 34,44 L24,44 C21.8,44 20,42.2 20,40 L20,10 Z"/>
    <path d="M42,10 L50,10 L60,30 L60,10 L68,10 L68,40 L60,40 L50,20 L50,40 L42,40 L42,10 Z"/>
    <path d="M72,10 L95,10 L95,17 L80,17 L80,21 L92,21 L92,28 L80,28 L80,33 L95,33 L95,40 L72,40 L72,10 Z"/>
    <path d="M100,10 L108,10 L108,33 L125,33 L125,40 L100,40 L100,10 Z"/>
    <path d="M130,10 L150,10 C155,10 160,15 160,20 C160,25 155,30 150,30 L138,30 L138,40 L130,40 L130,10 Z M138,23 L148,23 C150,23 152,21.5 152,20 C152,18.5 150,17 148,17 L138,17 L138,23 Z"/>
    <path d="M165,10 L173,10 L173,25 L185,10 L195,10 L180,25 L195,40 L185,40 L173,28 L173,40 L165,40 L165,10 Z"/>
  </g>
</svg>
